@startuml
' ======= layout =========
skinparam backgroundColor #fcf9ea
skinparam titleBorderRoundCorner 15
skinparam titleFontSize 30
skinparam classAttributeIconSize 0
skinparam titleFontName Arial Black
skinparam titleFontColor #f8a978
skinparam roundcorner 20
skinparam stereotypeCBackgroundColor ffc5a1
skinparam class {

ArrowColor ffc5a1
BorderColor White
BackgroundColor badfdb
}


' ======= title =========
center header


<font color=Black size=15><b>Built by WeByte ©</font>
endheader
title <b>US7 - Class Diagram\n

' ======= classes =========
class RegisterEmployeeController{
+createNewEmployee(employeeID, organizationRole, name, address,\n phoneNumber, e-Mail,socCode,doctorIndexNumber)
+saveEmployee()
}
class RegisterEmployeeUI{
}
class OrganizationRoleStore{
+getRoles()
}
class Company{
 - designation
 + getEmployeeStore()
}
class RegisterStore{
 +createNewEmployee(employeeID, organizationRole, name, address,\n phoneNumber, e-Mail,socCode,doctorIndexNumber)
 +validateEmployee(Emp)
 +saveEmployee(Emp)
 +addEmployee(Emp)
}
class Employee{
-employeeID
-organizationRole
-name
-address
-phoneNumber
-e-Mail
-socCode
 + Employee(employeeID, organizationRole, name, address,\n phoneNumber, e-Mail,socCode,)
}
class SpecialistDoctor{
-employeeID
-organizationRole
-name
-address
-phoneNumber
-e-Mail
-socCode
-doctorIndexNumber
 + Employee(employeeID, organizationRole, name, address,\n phoneNumber, e-Mail,socCode,doctorIndexNumber)
}
Company "1" --> "1" RegisterStore : uses
RegisterStore "1" -->"*" Employee: create
RegisterEmployeeUI ..> RegisterEmployeeController
RegisterEmployeeController ..> Company
RegisterEmployeeController ..> OrganizationRoleStore
RegisterEmployeeController ..> RegisterStore
Employee ..> SpecialistDoctor
@enduml