
@startuml
'https://plantuml.com/class-diagram
' ======= layout =========
skinparam backgroundColor #fcf9ea
skinparam titleBorderRoundCorner 15
skinparam titleFontSize 30
skinparam classAttributeIconSize 0
skinparam titleFontName Arial Black
skinparam titleFontColor #f8a978
skinparam roundcorner 20
skinparam stereotypeCBackgroundColor ffc5a1
skinparam class {

ArrowColor ffc5a1
BorderColor White
BackgroundColor badfdb
}


' ======= title =========
center header


<font color=Black size=15><b>Built by WeByte ©</font>
endheader
title <b>US4 - Class Diagram\n

' ======= classes =========

class RegisterTestUI

class Company {
  -designation
  +getParameterStore()
  +getTestStore()
  +getTestTypeStore()
}
class ParameterStore {
   +createParameter(id, designation, category, description)
   +validateParameter(par)
   +saveParameter(par)
   +addParameter(par)
}
class TestTypeStore {
-TestTypeList
+createTestType(code,  description, collectingMethod, parameterCategoryList)
+validateTest(test)
+saveTest(testType)
+addTestType(testType)
+getTestTypes()
+getTestTypeByCodes(ListTestTypeCodes)
+getListOfTestType()
}

class Test {
  -testType,
  -parameterList,
  -nhsCode,
  -laboratory,
  -TINOfClient,
  -creationDate
  Test(testType, parameterList, laboratory, TINOfClient)


}
class TestStore{
+createTest(testType, parameterList, nhsCode, laboratory, TINOfClient)
+validateTest(test)
+checkIfClientHasAlreadyTestInSystem(TIN)
+saveTest(test)
+getListRegisteredTest()
+addTest(test)
+getTestList()
+getTestByBarcode(barcode)
}

class CreateParameterController{
   +createNewParameter(code, designation, category, description)
   +saveParameter()
}
class TestTypeDTO{
-code
-description
-collectingMethod
-ParameterCategoryDTOList
TestTypeDTO(testType)
}


class ParameterDTO{
-code
-name
-parameterCategoryDTO
-description
ParameterDTO(parameter)
}

class TestTypeMapper{
+toDTO(testType)
+toTestType(testTypeDTO)
}
class ParameterMapper{
+toDTO(parameter)
+toTestType(paramaterDTO)
}

RegisterTestUI "1" ..> "1" CreateParameterController
CreateParameterController "1" ..> "1" Company
CreateParameterController "1" ..> "1" TestStore
CreateParameterController "1" ..> "1" TestTypeStore
CreateParameterController "1" ..> "1" ParameterStore
CreateParameterController "1" ..> "1" TestTypeMapper
TestTypeMapper "1" --> "1" TestTypeDTO : creates >
CreateParameterController "1" ..> "1" ParameterMapper
ParameterMapper "1" --> "1" ParameterDTO : creates >
TestStore "1" -- "1" Test : creates >
ParameterStore "1" -- "1" ParameterMapper: uses >
TestTypeStore "1" -- "1" TestTypeMapper: uses >


@enduml