@startuml
'https://plantuml.com/class-diagram
@startuml
hide methods
' ======= layout =========
skinparam backgroundColor #fcf9ea
skinparam titleBorderRoundCorner 15
skinparam titleFontSize 30
skinparam classAttributeIconSize 0
skinparam titleFontName Arial Black
skinparam titleFontColor #f8a978
skinparam roundcorner 20
skinparam stereotypeCBackgroundColor ffc5a1
skinparam class {

ArrowColor ffc5a1
BorderColor White
BackgroundColor badfdb
}


' ======= title =========
center header


<font color=Black size=15><b>Built by WeByte ©</font>
endheader
title <b>DOMAIN MODEL\n
class Receptionist{
}

class Company{
 - designation
}

class Administrator

class Client{
    - nhsNumber
    - birthDate
    - sex
    - tin
    - phoneNumber
    - e-mail
    - name
}

Administrator "1" -- "*" Receptionist : creates >
Receptionist "1" -- "*" Client : registers >
Company "1" -- "*" Administrator : knows >

@enduml