
@startuml
'https://plantuml.com/class-diagram
' ======= layout =========
skinparam backgroundColor #fcf9ea
skinparam titleBorderRoundCorner 15
skinparam titleFontSize 30
skinparam classAttributeIconSize 0
skinparam titleFontName Arial Black
skinparam titleFontColor #f8a978
skinparam roundcorner 20
skinparam stereotypeCBackgroundColor ffc5a1
skinparam class {

ArrowColor ffc5a1
BorderColor White
BackgroundColor badfdb
}


' ======= title =========
center header


<font color=Black size=15><b>Built by WeByte ©</font>
endheader
title <b>US10 - Class Diagram\n

' ======= classes =========

class CreateParameterUI

class Company {
  -designation
  +getParameterStore()
}
class ParameterStore {
   +createParameter(id, designation, category, description)
   +validateParameter(par)
   +saveParameter(par)
   +addParameter(par)
}

class Parameter {
  -id
  -designation
  -description
  Parameter(id, designation, category, description)


}

class CreateParameterController{
   +createNewParameter(code, designation, category, description)
   +saveParameter()
}
class ParameterStore
CreateParameterUI ...> CreateParameterController
CreateParameterController ...> Company
CreateParameterController ..> ParameterStore
Company "1" ----> "1" ParameterStore : "uses"
ParameterStore "1" ----> "*" Parameter : "creates"

@enduml