@startuml
' ======= layout =========
skinparam backgroundColor #fcf9ea
skinparam titleBorderRoundCorner 15
skinparam titleFontSize 30
skinparam classAttributeIconSize 0
skinparam titleFontName Arial Black
skinparam titleFontColor #f8a978
skinparam roundcorner 20
skinparam stereotypeCBackgroundColor ffc5a1
skinparam class {

ArrowColor ffc5a1
BorderColor White
BackgroundColor badfdb
}


' ======= title =========
center header


<font color=Black size=15><b>Built by WeByte ©</font>
endheader
title <b>DOMAIN MODEL\n
'https://plantuml.com/class-diagram

class Administrator{
}

class Company{
 - designation
}

class Administrator

class Test{
    - Code
    - Description
    - Collecting Method
    }

Administrator "1" -- "*" Administrator : creates >
Administrator "1" -- "*" Test : registers >
Company "1" -- "*" Administrator : knows >

@enduml


@startuml
'https://plantuml.com/class-diagram

class Company{
 - designation
}

class ClinicalAnalysisLaboratory{
- NameOfCompany
- TypeOfTest
}

class Administrator

@enduml