@startuml
'https://plantuml.com/class-diagram
@startuml
hide methods
' ======= layout =========
skinparam backgroundColor #fcf9ea
skinparam titleBorderRoundCorner 15
skinparam titleFontSize 30
skinparam classAttributeIconSize 0
skinparam titleFontName Arial Black
skinparam titleFontColor #f8a978
skinparam roundcorner 20
skinparam stereotypeCBackgroundColor ffc5a1
skinparam class {

ArrowColor ffc5a1
BorderColor White
BackgroundColor badfdb
}


' ======= title =========
center header


<font color=Black size=15><b>Built by WeByte ©</font>
endheader
title <b>DOMAIN MODEL\n


class Company{
 - designation
}

class User{
-name
-email
-password
}
class Receptionist{
    }

    class MedicalLabTechnician{
    }

    class SpecialistDoctor{
    - doctorIndexNumber
    }

    class LaboratoryCoordinator{
    }

    class ClinicalChemistryTechnologist{
    - laboratoryId;
    - name;
    - address;
    - phoneNumber;
    - tinnumber
    }

    class Employee{
    - username
    - employeeId
    - organizationRole
    - name
    - address
    - phoneNumber
    - e-Mail
    - socCode
    }

Company "1" -- "*" Employee : employ >
Employee "0..1" -- "*" User : relates to >
MedicalLabTechnician "1" -- "1" Employee : is rolled as >
LaboratoryCoordinator "1" -- "1" Employee : is rolled as >
ClinicalChemistryTechnologist "1" -- "1" Employee : is rolled as >
SpecialistDoctor "1" -- "1" Employee : is rolled as >
Receptionist "1" -- "1" Employee : is rolled as >


@enduml